<?xml version="1.0" encoding="utf-8"?>
<!-- Generator: Adobe Illustrator 21.0.2, SVG Export Plug-In . SVG Version: 6.00 Build 0)  -->
<svg version="1.1" id="图层_1" xmlns="http://www.w3.org/2000/svg" xmlns:xlink="http://www.w3.org/1999/xlink" x="0px" y="0px"
	 viewBox="0 0 303.4 33.5" style="enable-background:new 0 0 303.4 33.5;" xml:space="preserve">
<style type="text/css">
	.st0{fill:#FFFFFF;}
</style>
<title>hello-word</title>
<path class="st0" d="M0.8,18.1L0,15.4C3.9,11,6.8,5.8,8.5,0.2l2.4,1.1C10,4.2,8.8,6.9,7.3,9.4v24H4.8v-20
	C3.5,15.1,2.2,16.6,0.8,18.1z M11.6,14.9l-2.2-1.4c2.8-4,4.8-8.5,5.9-13.3l2.5,0.5c-0.4,1.4-0.8,2.7-1.2,4h15.3v1.7
	c-0.6,2.2-1.3,4.4-2.2,6.6l-2.5-0.7c0.9-1.6,1.6-3.3,2-5H15.6C14.5,10,13.1,12.5,11.6,14.9L11.6,14.9z M17,15.7
	c-1.1,4.6-2.8,9-5.1,13.2L9.5,28c2.2-4.1,4-8.5,5.1-13L17,15.7z M15.3,33.1l-0.5-2.5c1.5,0.1,3,0.2,4.4,0.2c0.7,0.1,1.3-0.4,1.4-1.1
	c0-0.1,0-0.2,0-0.3V10.3H23v19.8c0,2-1,3-3,3L15.3,33.1z M32.7,28.4l-2.3,1c-1.3-4.8-2.9-9.5-4.8-14l2.3-0.8
	C29.8,19.2,31.4,23.8,32.7,28.4z"/>
<path class="st0" d="M81,0.2c-0.4,2.5-0.9,4.9-1.3,7.1h6.2v1.5c-0.2,5.1-1.4,10.2-3.5,14.9c1.8,1.4,3.5,2.8,5.1,4.4l-1.8,2
	c-1.4-1.5-3-2.9-4.6-4.2c-1.8,3-4.1,5.6-6.9,7.7l-1.8-2.2c2.7-1.9,4.9-4.3,6.6-7.2c-1.7-1.3-3.5-2.7-5.5-4.2c1.2-3.4,2.2-6.8,3-10.3
	h-3.9V7.3h4.3C77.6,4.9,78,2.5,78.4,0L81,0.2z M83.4,9.8h-4.2c-0.7,3.2-1.6,6.4-2.7,9.5c1.4,1,2.7,1.9,3.8,2.8
	C82.1,18.2,83.2,14,83.4,9.8L83.4,9.8z M95.3,15.5V11c2.1-1.8,3.9-3.9,5.5-6.2H88.2V2.3h15.6v2.5c-1.7,2.5-3.7,4.8-5.9,7v3.7h7.3V18
	h-7.3v11.5c0,2.3-1,3.5-2.8,3.5h-5.2l-0.7-2.5c1.5,0,3.1,0,4.8,0c0.8,0,1.3-0.6,1.3-1.8V18h-8.1v-2.5L95.3,15.5z"/>
<path class="st0" d="M153.2,15.5c0.4,0.4,0.6,0.9,0.6,1.4c0,0.5-0.2,1-0.6,1.4c-0.8,0.8-2,0.8-2.8,0c-0.4-0.4-0.6-0.9-0.6-1.4
	c0-1.1,0.9-2,2-2C152.3,14.9,152.8,15.1,153.2,15.5z"/>
<path class="st0" d="M203.1,9V0.8h2.6V9h7.3V0.5h2.6V9h7.3V0.5h2.6V9h5.4v2.5h-5.4v11.3h-12.5V11.4h-7.3v17.9h24V32h-26.6V11.4h-4.6
	V9H203.1z M215.7,20.3h7.3v-8.8h-7.3L215.7,20.3z"/>
<path class="st0" d="M299.3,1.8v14.3h-6.9c2.4,2.8,6.1,5,11.1,6.6l-1.1,2.3c-3.1-1.1-6-2.6-8.6-4.6v13.1h-2.6V19.9h2.1
	c-1.4-1.1-2.6-2.4-3.6-3.9h-5.8c-2.5,3.5-6.7,6.3-12.4,8.6l-1.4-2.3c5-1.7,8.7-3.7,11.1-6.3h-6.7V1.8H299.3z M283,19.9
	c0.1,2.5-0.4,4.9-1.3,7.2c-1.1,2.6-3.6,4.7-7.4,6.4l-1.7-2.1c3.2-1.3,5.4-3,6.5-5c0.9-2.1,1.3-4.3,1.3-6.5L283,19.9z M285.5,7.8V4.1
	h-8.6v3.7L285.5,7.8z M285.5,10h-8.6v3.8h8.6V10z M288,7.8h8.8V4.1H288V7.8z M296.8,10H288v3.8h8.8L296.8,10z"/>
</svg>
